<?xml version="1.0" encoding="UTF-8"?> <svg xmlns="http://www.w3.org/2000/svg" width="415.695" height="142.2" viewBox="0 0 415.695 142.2"><g id="Grupo_6" data-name="Grupo 6" transform="translate(-2510.141 -243)"><path id="Trazado_26" data-name="Trazado 26" d="M378.567,279.144A105.842,105.842,0,0,1,353.48,309.4c-5.315-34.337-31.386-62.492-56.138-78.971,17.373-4.214,52.559-15.444,75.278-40.872a77.936,77.936,0,0,1,14.515,31.908h8.241c-3.4-17.793-11.594-32.152-19.831-41.024a4,4,0,0,0-6.073.225c-27.815,34.675-83.153,43.681-83.709,43.769a4.08,4.08,0,0,0-3.37,3.35,4.143,4.143,0,0,0,2.029,4.328c43.213,24.267,60.3,61.16,61.8,85.379a4.117,4.117,0,0,0,2.341,3.479,3.983,3.983,0,0,0,4.12-.441c14.341-10.926,24.167-22.48,30.852-33.669a29.662,29.662,0,0,1-4.972-7.719" transform="translate(2227.81 63.847)" fill="#e55a5a"></path><path id="Trazado_27" data-name="Trazado 27" d="M508.89,299.066V300.8h-5.842v2.9h5.247v1.645h-5.247v2.929h6.031v1.739H501.2v-10.95Z" transform="translate(2227.81 63.847)" fill="#e55a5a"></path><path id="Trazado_28" data-name="Trazado 28" d="M514.169,307.51a2.805,2.805,0,0,0,4.073,0,3.541,3.541,0,0,0,.751-2.382v-6.062h1.849v6.141a4.878,4.878,0,0,1-1.3,3.642,5,5,0,0,1-6.673,0,4.874,4.874,0,0,1-1.3-3.642v-6.141h1.849v6.062a3.541,3.541,0,0,0,.752,2.382" transform="translate(2227.81 63.847)" fill="#e55a5a"></path><path id="Trazado_29" data-name="Trazado 29" d="M532.748,302.622a3.179,3.179,0,0,1-2.365,3.415l2.866,3.979H530.9l-2.616-3.681h-2.428v3.681h-1.848v-10.95h4.073a5.9,5.9,0,0,1,3.587.846,3.232,3.232,0,0,1,1.081,2.71m-2.459,1.551a1.953,1.953,0,0,0,.564-1.559,1.666,1.666,0,0,0-.58-1.472,3.849,3.849,0,0,0-2.068-.4h-2.35v3.916h2.3a3.4,3.4,0,0,0,2.131-.485" transform="translate(2227.81 63.847)" fill="#e55a5a"></path><path id="Trazado_30" data-name="Trazado 30" d="M544.841,308.5a6.007,6.007,0,0,1-8.209,0,5.75,5.75,0,0,1,0-8.083,6.007,6.007,0,0,1,8.209,0,5.75,5.75,0,0,1,0,8.083m-1.355-6.853a3.837,3.837,0,0,0-5.5,0,4.086,4.086,0,0,0,0,5.623,3.837,3.837,0,0,0,5.5,0,4.089,4.089,0,0,0,0-5.623" transform="translate(2227.81 63.847)" fill="#e55a5a"></path><path id="Trazado_31" data-name="Trazado 31" d="M556.5,300.021a3.624,3.624,0,0,1,1.143,2.945,3.493,3.493,0,0,1-1.166,2.914,5.722,5.722,0,0,1-3.58.924h-1.942v3.211H549.1V299.066h3.76a5.629,5.629,0,0,1,3.634.955m-1.308,4.519a2.417,2.417,0,0,0,.556-1.723,1.785,1.785,0,0,0-.705-1.6,4.056,4.056,0,0,0-2.209-.47h-1.879v4.386H553.1a2.861,2.861,0,0,0,2.092-.588" transform="translate(2227.81 63.847)" fill="#e55a5a"></path><path id="Trazado_32" data-name="Trazado 32" d="M567.774,299.066V300.8h-5.842v2.9h5.247v1.645h-5.247v2.929h6.03v1.739h-7.879v-10.95Z" transform="translate(2227.81 63.847)" fill="#e55a5a"></path><path id="Trazado_33" data-name="Trazado 33" d="M572.144,307.525l-1.1,2.49h-1.974l4.825-10.95h1.974l4.824,10.95h-1.973l-1.1-2.49Zm4.731-1.708-1.99-4.511-1.989,4.511Z" transform="translate(2227.81 63.847)" fill="#e55a5a"></path><path id="Trazado_34" data-name="Trazado 34" d="M590.691,299.066h1.848v10.95h-2l-6.2-7.989v7.989h-1.849v-10.95h1.849l6.359,8.177Z" transform="translate(2227.81 63.847)" fill="#e55a5a"></path><path id="Trazado_35" data-name="Trazado 35" d="M602.863,307.51a2.805,2.805,0,0,0,4.073,0,3.541,3.541,0,0,0,.751-2.382v-6.062h1.849v6.141a4.878,4.878,0,0,1-1.3,3.642,5,5,0,0,1-6.673,0,4.874,4.874,0,0,1-1.3-3.642v-6.141h1.849v6.062a3.541,3.541,0,0,0,.752,2.382" transform="translate(2227.81 63.847)" fill="#e55a5a"></path><path id="Trazado_36" data-name="Trazado 36" d="M620.908,299.066h1.848v10.95h-2l-6.2-7.989v7.989H612.7v-10.95h1.848l6.36,8.177Z" transform="translate(2227.81 63.847)" fill="#e55a5a"></path><rect id="Rect치ngulo_5" data-name="Rect치ngulo 5" width="1.848" height="10.95" transform="translate(2853.873 362.913)" fill="#e55a5a"></rect><path id="Trazado_37" data-name="Trazado 37" d="M636.213,310.015h-2.067l-4.4-10.95h2.068l3.367,8.177,3.369-8.177h2.067Z" transform="translate(2227.81 63.847)" fill="#e55a5a"></path><path id="Trazado_38" data-name="Trazado 38" d="M650.139,299.066V300.8H644.3v2.9h5.248v1.645H644.3v2.929h6.031v1.739h-7.88v-10.95Z" transform="translate(2227.81 63.847)" fill="#e55a5a"></path><path id="Trazado_39" data-name="Trazado 39" d="M661.7,302.622a3.179,3.179,0,0,1-2.366,3.415l2.867,3.979h-2.349l-2.617-3.681h-2.428v3.681h-1.848v-10.95h4.072a5.9,5.9,0,0,1,3.588.846,3.229,3.229,0,0,1,1.081,2.71m-2.46,1.551a1.953,1.953,0,0,0,.564-1.559,1.664,1.664,0,0,0-.58-1.472,3.845,3.845,0,0,0-2.067-.4h-2.35v3.916h2.3a3.392,3.392,0,0,0,2.13-.485" transform="translate(2227.81 63.847)" fill="#e55a5a"></path><path id="Trazado_40" data-name="Trazado 40" d="M667.942,300.507a2.431,2.431,0,0,0-1.324.329,1.1,1.1,0,0,0-.517.995,1.158,1.158,0,0,0,.517,1.018,7.8,7.8,0,0,0,2.2.76,6.052,6.052,0,0,1,2.538,1.144,2.707,2.707,0,0,1,.854,2.169,2.873,2.873,0,0,1-1.081,2.326,4.3,4.3,0,0,1-2.835.893,6.661,6.661,0,0,1-4.559-1.77l1.16-1.395a5.213,5.213,0,0,0,3.446,1.442,2.351,2.351,0,0,0,1.417-.384,1.2,1.2,0,0,0,.525-1.018,1.142,1.142,0,0,0-.494-.987,5.2,5.2,0,0,0-1.7-.642,15.162,15.162,0,0,1-1.832-.533,4.126,4.126,0,0,1-1.113-.635,2.648,2.648,0,0,1-.971-2.255,2.747,2.747,0,0,1,1.1-2.342,4.45,4.45,0,0,1,2.733-.822,6.577,6.577,0,0,1,2.084.344,5.466,5.466,0,0,1,1.786.971l-.987,1.394a3.753,3.753,0,0,0-1.316-.72,5.07,5.07,0,0,0-1.637-.282" transform="translate(2227.81 63.847)" fill="#e55a5a"></path><rect id="Rect치ngulo_6" data-name="Rect치ngulo 6" width="1.848" height="10.95" transform="translate(2902.574 362.913)" fill="#e55a5a"></rect><path id="Trazado_41" data-name="Trazado 41" d="M684.053,300.758v9.258H682.2v-9.258h-3.321v-1.692h8.49v1.692Z" transform="translate(2227.81 63.847)" fill="#e55a5a"></path><path id="Trazado_42" data-name="Trazado 42" d="M696,299.065l-2.992,4.981-2.991-4.981H688l4.073,6.627v4.323h1.88v-4.323l4.073-6.627Z" transform="translate(2227.81 63.847)" fill="#e55a5a"></path><path id="Trazado_43" data-name="Trazado 43" d="M418.688,230.153h14.5v.314c-3.371.548-6.114,5.173-6.114,13.872v19.2q0,10.7-5.173,17.4a16.348,16.348,0,0,1-13.794,6.662c-15.6,0-23.982-7.759-23.982-23.2V241.675c0-6.741-1.255-10.5-3.763-11.208v-.314h17.4v.314c-2.586.705-3.841,3.605-3.841,11.208V264.4c0,15.283,4.233,21.632,14.186,21.632a15.179,15.179,0,0,0,12.7-6.114c3.214-4.153,4.781-9.561,4.781-16.38v-19.2c0-8.7-3.057-13.245-6.9-13.872Z" transform="translate(2227.81 63.847)" fill="#312a63"></path><path id="Trazado_44" data-name="Trazado 44" d="M451.531,278.146c0,6.819.941,8.7,3.841,9.562v.313H438.6v-.313a4.654,4.654,0,0,0,3.057-2.587c.548-1.254.862-3.605.862-6.975V238.082c0-7.29-1.1-11.685-3.841-12.861l.157-.235A40.538,40.538,0,0,0,452.08,222.4l.156.157a122.66,122.66,0,0,0-.7,15.526Z" transform="translate(2227.81 63.847)" fill="#312a63"></path><path id="Trazado_45" data-name="Trazado 45" d="M487.351,244.809h12.7v.235c-2.194.706-5.016,3.919-6.584,8.308l-11.443,33c-2.586,7.446-5.251,12.54-7.994,15.362a13.116,13.116,0,0,1-9.8,4.232c-2.978,0-5.094-.549-6.27-1.646L460,295.753l.314-.078c1.645,1.332,4.153,2.038,7.524,2.038,5.956,0,10.267-3.763,12.853-11.365h-2.116l-14.734-35.661c-1.49-3.527-3.136-5.408-5.1-5.643v-.235h18.105v.235c-3.214.706-4,3.292-2.352,7.6l9.406,24.374,7.837-22.65c1.8-5.094-.313-8.308-4.389-9.327Z" transform="translate(2227.81 63.847)" fill="#312a63"></path><path id="Trazado_46" data-name="Trazado 46" d="M516.645,261.66c6.27,3.057,14.108,6.192,14.108,14.03,0,7.21-5.8,11.913-15.44,11.913a31.318,31.318,0,0,1-7.759-1.1,22.922,22.922,0,0,1-6.427-2.665l1.568-10.032.234.079c2.116,8.464,7.054,12.461,13.011,12.461,4.624,0,7.288-2.586,7.288-6.661,0-3.763-3.291-6.663-7.445-8.622-5.957-3.057-13.559-6.192-13.559-14.029a11.261,11.261,0,0,1,3.84-8.7c2.587-2.351,6.035-3.527,10.268-3.527,5.094,0,10.11,1.882,12.853,4.154l-2.272,9.719-.236-.078c-1.8-8.857-5.721-12.619-10.345-12.619-4.311,0-7.289,2.743-7.289,6.505,0,4.076,3.448,7.054,7.6,9.17" transform="translate(2227.81 63.847)" fill="#312a63"></path><path id="Trazado_47" data-name="Trazado 47" d="M554.152,261.66c6.27,3.057,14.108,6.192,14.108,14.03,0,7.21-5.8,11.913-15.441,11.913a31.311,31.311,0,0,1-7.758-1.1,22.936,22.936,0,0,1-6.427-2.665l1.567-10.032.235.079c2.116,8.464,7.054,12.461,13.011,12.461,4.624,0,7.289-2.586,7.289-6.661,0-3.763-3.292-6.663-7.446-8.622-5.956-3.057-13.559-6.192-13.559-14.029a11.261,11.261,0,0,1,3.84-8.7c2.587-2.351,6.035-3.527,10.268-3.527,5.094,0,10.11,1.882,12.854,4.154l-2.273,9.719-.236-.078c-1.8-8.857-5.721-12.619-10.345-12.619-4.311,0-7.289,2.743-7.289,6.505,0,4.076,3.448,7.054,7.6,9.17" transform="translate(2227.81 63.847)" fill="#312a63"></path><path id="Trazado_48" data-name="Trazado 48" d="M588.072,250.374q-2.939,4.35-3.057,11.286h18.262a16.211,16.211,0,0,0,.313-3.919c0-7.289-2.665-11.756-8.072-11.756-2.9,0-5.408,1.489-7.446,4.389m23.669,26.334c-2.116,6.192-7.68,10.894-15.91,10.894a18.587,18.587,0,0,1-14.186-5.956c-3.684-4-5.564-9.17-5.564-15.362,0-6.348,1.8-11.521,5.486-15.518a18.2,18.2,0,0,1,13.951-5.957c4.859,0,8.7,1.411,11.521,4.311a14.717,14.717,0,0,1,4.232,10.737,13.659,13.659,0,0,1-.235,2.979H585.015c.157,5.564,1.725,9.953,4.625,13.167a14.9,14.9,0,0,0,11.285,4.7,13.994,13.994,0,0,0,10.5-4.075Z" transform="translate(2227.81 63.847)" fill="#312a63"></path><path id="Trazado_49" data-name="Trazado 49" d="M658.72,274.671c0,6.348,1.175,8.778,4.075,9.8v.313a49.029,49.029,0,0,0-12.853,2.9l-.235-.157V258.76c0-7.289-1.176-10.032-3.763-11.051l.078-.313a35.5,35.5,0,0,0,13.246-2.587l.157.157a105.282,105.282,0,0,0-.705,13.794Zm-10.5,2.586.157.156a15.972,15.972,0,0,1-4.859,7.055,12.818,12.818,0,0,1-8.7,3.056c-7.916,0-12.618-5.016-12.618-13.4V258.76c0-7.289-1.176-10.032-3.762-11.051l.078-.313a35.5,35.5,0,0,0,13.246-2.587l.156.157a105.467,105.467,0,0,0-.7,13.794v13.089c0,7.132,2.821,10.659,8.543,10.659,3.684,0,6.505-1.724,8.464-5.251" transform="translate(2227.81 63.847)" fill="#312a63"></path><path id="Trazado_50" data-name="Trazado 50" d="M683.615,261.66c6.27,3.057,14.108,6.192,14.108,14.03,0,7.21-5.8,11.913-15.441,11.913a31.311,31.311,0,0,1-7.758-1.1,22.936,22.936,0,0,1-6.427-2.665l1.567-10.032.235.079c2.116,8.464,7.054,12.461,13.011,12.461,4.624,0,7.288-2.586,7.288-6.661,0-3.763-3.291-6.663-7.445-8.622-5.956-3.057-13.559-6.192-13.559-14.029a11.261,11.261,0,0,1,3.84-8.7c2.587-2.351,6.035-3.527,10.268-3.527,5.094,0,10.11,1.882,12.853,4.154l-2.272,9.719-.236-.078c-1.8-8.857-5.721-12.619-10.345-12.619-4.311,0-7.289,2.743-7.289,6.505,0,4.076,3.448,7.054,7.6,9.17" transform="translate(2227.81 63.847)" fill="#312a63"></path></g></svg> 